<svg width="380" height="97" viewBox="0 0 380 97" fill="none" xmlns="http://www.w3.org/2000/svg">
<g clip-path="url(#clip0_359_3204)">
<path d="M27.3 16C24.6 27.8 15.3 37 3.6 39.7C1.5 40.2 0 42 0 44.1V52.9C0 55.7 2.5 57.8 5.3 57.3C12.4 56 18.9 53.2 24.6 49.3C29.4 46 33.5 41.8 36.9 37C41.5 30.4 44.5 22.6 45.4 14.2C45.5 13.2 44.8 12.4 43.8 12.4H31.7C29.6 12.4 27.8 13.9 27.3 16Z" fill="#C3C9CB"/>
<path d="M36.9 60C33.6 55.2 29.4 51.1 24.6 47.7C18.9 43.7 12.4 40.9 5.3 39.7C2.5 39.2 0 41.3 0 44.1V52.9C0 55 1.5 56.8 3.6 57.3C15.4 60 24.7 69.3 27.3 81C27.8 83.1 29.6 84.6 31.7 84.6H43.8C44.7 84.6 45.5 83.8 45.4 82.8C44.5 74.4 41.5 66.6 36.9 60Z" fill="#DDE1E2"/>
<path d="M50.1001 82.8C50.0001 83.7 50.7001 84.6 51.7001 84.6H63.8001C65.9001 84.6 67.7001 83.1 68.2001 81C70.9001 69.2 80.2001 60 91.9001 57.3C94.0001 56.8 95.5001 55 95.5001 52.9V44.1C95.5001 41.3 93.0001 39.2 90.2001 39.7C83.1001 41 76.6001 43.8 70.9001 47.7C66.1001 51 62.0001 55.2 58.6001 60C54.0001 66.6 51.0001 74.4 50.1001 82.8Z" fill="#C3C9CB"/>
<path d="M63.8001 12.4H51.7001C50.7001 12.4 50.0001 13.2 50.1001 14.2C51.0001 22.6 54.0001 30.4 58.6001 37C61.9001 41.8 66.1001 45.9 70.9001 49.3C76.6001 53.3 83.1001 56.1 90.2001 57.3C93.0001 57.8 95.5001 55.7 95.5001 52.9V44.1C95.5001 42 94.0001 40.2 91.9001 39.7C80.1001 37 70.9001 27.7 68.2001 16C67.7001 13.9 65.9001 12.4 63.8001 12.4Z" fill="#DDE1E2"/>
</g>
<path d="M144.395 63.4363C145.285 63.4363 145.942 63.7879 146.364 64.4912C146.833 65.1475 147.067 65.8741 147.067 66.6711C147.067 67.6556 146.903 68.3588 146.575 68.7807C146.293 69.1558 145.731 69.5543 144.887 69.9762C142.918 70.9138 140.48 71.6639 137.574 72.2265C134.667 72.789 131.549 73.0703 128.221 73.0703C124.049 73.0703 120.978 72.3671 119.009 70.9607C117.087 69.5543 115.891 67.8666 115.422 65.8976C115.001 63.8817 114.79 61.2564 114.79 58.0216C114.79 54.5525 114.93 51.1536 115.212 47.8251C115.493 44.4497 115.985 40.1601 116.688 34.9563C117.016 32.7061 117.907 31.0887 119.36 30.1042C120.814 29.0728 122.408 28.5571 124.142 28.5571C125.596 28.5571 127.963 28.5103 131.245 28.4165L137.363 28.3462C139.894 28.3462 141.723 28.4165 142.848 28.5571C144.254 28.8384 145.285 29.1666 145.942 29.5416C146.645 29.8698 146.997 30.4558 146.997 31.2996C146.997 32.2373 146.668 33.1514 146.012 34.0422C145.403 34.9329 144.465 35.3783 143.199 35.3783C141.746 35.3783 139.66 35.2845 136.941 35.097C134.222 34.9095 132.182 34.8157 130.823 34.8157C129.651 34.8157 128.502 34.886 127.377 35.0267C126.064 35.1204 125.127 35.2845 124.564 35.5189C124.002 35.7533 123.673 36.1518 123.58 36.7144C122.923 41.5431 122.595 45.106 122.595 47.4032C123.673 47.5438 124.728 47.6141 125.76 47.6141C127.072 47.6141 128.479 47.5438 129.979 47.4032C131.479 47.2625 132.44 47.1688 132.862 47.1219C135.347 46.8875 137.48 46.7703 139.261 46.7703C140.293 46.7703 141.066 46.9578 141.582 47.3328C142.144 47.7079 142.426 48.2236 142.426 48.8799C142.426 49.9113 142.144 50.7082 141.582 51.2708C141.066 51.8334 140.129 52.2553 138.769 52.5366C137.128 52.8648 135.089 53.1226 132.651 53.3101C130.26 53.4976 127.916 53.5914 125.619 53.5914C124.822 53.5914 123.72 53.5445 122.314 53.4508C122.173 56.3105 122.103 58.9592 122.103 61.397C122.103 64.7256 124.306 66.3898 128.713 66.3898C131.057 66.3898 133.003 66.2257 134.55 65.8976C136.097 65.5694 137.878 65.1006 139.894 64.4912C141.769 63.7879 143.27 63.4363 144.395 63.4363ZM168.542 54.9275C168.683 54.5525 169.175 53.1929 170.019 50.8489C170.91 48.5049 171.73 46.7234 172.48 45.5045C173.699 43.5824 174.777 42.6213 175.715 42.6213C177.028 42.6213 178.036 42.8792 178.739 43.3949C179.442 43.8637 179.794 44.5434 179.794 45.4342C179.794 45.8561 179.606 46.4421 179.231 47.1922C178.903 47.9423 178.715 48.3877 178.669 48.5283C176.793 52.6538 175.106 57.084 173.605 61.819L172.129 67.304C171.566 69.0855 170.605 70.5388 169.245 71.6639C167.886 72.7422 166.292 73.2813 164.464 73.2813C162.823 73.2813 161.299 72.5312 159.893 71.031C159.049 69.7184 158.158 68.0541 157.221 66.0382C156.33 64.0224 155.556 62.0534 154.9 60.1313L152.439 52.7476C151.923 51.2943 151.501 50.0519 151.173 49.0205C150.892 47.9892 150.751 47.0516 150.751 46.2077C150.704 45.2232 150.985 44.4262 151.595 43.8168C152.204 43.2073 153.048 42.9026 154.126 42.9026C155.345 42.9026 156.213 43.1605 156.728 43.6761C157.244 44.145 157.713 44.895 158.135 45.9264C158.322 47.0047 158.838 49.2081 159.682 52.5366L160.174 54.5056C160.596 56.0995 161.135 57.7169 161.791 59.3577C162.448 60.9986 163.104 62.5691 163.76 64.0692C163.667 63.8348 163.995 64.6084 164.745 66.3898C165.214 65.0303 165.753 63.366 166.362 61.397L168.542 54.9275ZM216.387 69.6246C216.387 70.656 215.825 71.5233 214.7 72.2265C213.622 72.9297 212.614 73.2813 211.676 73.2813C209.895 73.2813 208.465 73.0703 207.386 72.6484C206.355 72.1796 205.394 71.3357 204.503 70.1168C203.284 71.1951 201.62 72.0155 199.51 72.5781C197.401 73.0938 195.455 73.3516 193.674 73.3516C190.767 73.3516 188.376 72.5781 186.501 71.031C184.626 69.4371 183.688 67.1165 183.688 64.0692C183.688 62.7566 184.04 61.5611 184.743 60.4829C185.446 59.3577 186.407 58.3732 187.626 57.5294C188.986 56.6386 190.533 55.9589 192.267 55.4901C194.002 54.9744 195.807 54.7165 197.682 54.7165C198.667 54.7165 199.839 54.9041 201.198 55.2791C202.558 55.6542 203.613 56.0526 204.363 56.4746V55.3494C204.363 52.8179 203.753 51.0833 202.534 50.1457C201.315 49.1612 199.346 48.6689 196.627 48.6689C195.83 48.6689 195.033 48.833 194.236 49.1612C193.486 49.4893 192.619 49.9347 191.634 50.4973C190.322 51.2005 189.08 51.5521 187.907 51.5521C187.486 51.5521 187.087 51.2708 186.712 50.7082C186.337 50.0988 186.149 49.5597 186.149 49.0909C186.149 47.7313 186.782 46.5593 188.048 45.5748C189.361 44.5903 190.908 43.8637 192.689 43.3949C194.471 42.8792 196.065 42.6213 197.471 42.6213C198.878 42.6213 200.495 42.9026 202.323 43.4652C204.152 43.9809 205.652 44.7075 206.824 45.6451C208.23 46.864 209.309 48.2939 210.059 49.9347C210.856 51.5287 211.254 53.2867 211.254 55.2088C211.254 55.8182 211.207 56.7324 211.113 57.9513C211.02 59.264 210.973 60.3891 210.973 61.3267C210.973 61.7486 210.926 62.3815 210.832 63.2254C210.738 64.2568 210.691 65.0772 210.691 65.6866C210.691 66.2492 210.902 66.7414 211.324 67.1634C211.746 67.5384 212.239 67.7259 212.801 67.7259L214.77 67.6556C215.286 67.6556 215.684 67.8431 215.966 68.2182C216.247 68.5932 216.387 69.062 216.387 69.6246ZM193.744 67.7962C195.76 67.7962 197.448 67.5853 198.807 67.1634C200.167 66.7414 201.808 65.9679 203.73 64.8428C203.917 64.0458 204.034 62.991 204.081 61.6783C201.503 60.4594 199.37 59.85 197.682 59.85C195.76 59.85 194.049 60.2016 192.549 60.9048C191.048 61.608 190.298 62.8503 190.298 64.6318C190.298 65.5225 190.673 66.2726 191.424 66.8821C192.174 67.4915 192.947 67.7962 193.744 67.7962ZM221.3 48.3173C220.081 47.4735 219.472 46.5827 219.472 45.6451C219.472 44.9888 219.753 44.3794 220.316 43.8168C220.878 43.2542 221.722 42.9729 222.847 42.9729C224.16 42.9729 225.332 43.3245 226.363 44.0277C227.441 44.6841 228.192 45.6451 228.613 46.9109C229.692 45.6451 230.911 44.6372 232.27 43.8871C233.677 43.137 235.106 42.762 236.56 42.762C238.294 42.762 239.865 43.2308 241.271 44.1684C242.678 45.106 243.381 46.3718 243.381 47.9657C243.381 48.8565 242.982 49.7706 242.185 50.7082C241.435 51.6459 240.662 52.1147 239.865 52.1147C239.443 52.1147 239.068 52.0209 238.74 51.8334C238.458 51.599 238.107 51.2708 237.685 50.8489C237.216 50.3801 236.818 50.0519 236.489 49.8644C236.161 49.63 235.786 49.5128 235.364 49.5128C234.614 49.5128 233.911 49.63 233.255 49.8644C232.598 50.0988 232.153 50.3801 231.919 50.7082C231.168 51.8803 230.606 52.9351 230.231 53.8727C229.903 54.8103 229.739 55.8182 229.739 56.8965C229.739 57.6935 229.715 58.3264 229.668 58.7952L229.598 62.8035C229.598 63.4129 229.621 64.0927 229.668 64.8428C229.715 65.5929 229.762 66.1554 229.809 66.5305C229.95 67.7962 230.02 69.0151 230.02 70.1872C230.02 70.9841 229.715 71.6873 229.106 72.2968C228.496 72.9062 227.746 73.211 226.855 73.211C225.449 73.211 224.418 72.9531 223.761 72.4374C223.105 71.8749 222.777 70.8669 222.777 69.4136L222.706 64.9131C222.66 64.0224 222.636 62.7566 222.636 61.1158L222.706 56.4746C222.8 54.2243 222.847 52.3959 222.847 50.9895C222.847 50.4738 222.73 50.005 222.496 49.5831C222.308 49.1612 221.91 48.7393 221.3 48.3173ZM274.205 73.2813C272.611 73.2813 271.392 73.0469 270.548 72.5781C269.704 72.0624 268.79 71.1248 267.805 69.7652C266.586 70.8435 264.758 71.7108 262.32 72.3671C259.929 73.0234 257.867 73.3516 256.132 73.3516C253.272 73.3516 250.952 72.5781 249.17 71.031C247.436 69.4371 246.568 67.1165 246.568 64.0692C246.568 62.7566 246.92 61.5611 247.623 60.4829C248.373 59.3577 249.334 58.3732 250.506 57.5294C251.819 56.6386 253.366 55.9354 255.148 55.4198C256.976 54.9041 258.64 54.6462 260.14 54.6462C262.672 54.6462 264.922 54.8806 266.891 55.3494V55.2791C266.891 52.7476 266.258 51.013 264.992 50.0754C263.774 49.0909 261.805 48.5986 259.086 48.5986C257.351 48.5986 255.851 49.3721 254.585 50.9192C254.116 51.5287 253.132 51.8334 251.631 51.8334C250.881 51.8334 250.319 51.5287 249.944 50.9192C249.616 50.2629 249.452 49.6065 249.452 48.9502C249.452 47.5907 250.014 46.4187 251.139 45.4342C252.311 44.4497 253.718 43.723 255.359 43.2542C256.999 42.7385 258.523 42.4807 259.929 42.4807C261.289 42.4807 262.906 42.762 264.782 43.3245C266.657 43.8871 268.18 44.6372 269.352 45.5748C270.759 46.7937 271.837 48.2236 272.587 49.8644C273.384 51.4583 273.783 53.2164 273.783 55.1385C273.783 55.7479 273.736 56.6621 273.642 57.881C273.548 59.2874 273.501 60.436 273.501 61.3267C273.501 61.7486 273.454 62.2878 273.361 62.9441C273.267 63.7879 273.22 64.4912 273.22 65.0537C273.22 65.6632 273.408 66.2492 273.783 66.8118C274.158 67.3743 274.673 67.8431 275.33 68.2182C275.939 68.5463 276.338 68.8979 276.525 69.273C276.713 69.648 276.806 70.07 276.806 70.5388C276.806 71.0076 276.502 71.5936 275.892 72.2968C275.33 72.9531 274.767 73.2813 274.205 73.2813ZM260.14 59.85C258.312 59.85 256.695 60.2016 255.288 60.9048C253.882 61.608 253.179 62.8503 253.179 64.6318C253.179 65.5225 253.483 66.2726 254.093 66.8821C254.749 67.4915 255.452 67.7962 256.202 67.7962C258.218 67.7962 259.906 67.5853 261.265 67.1634C262.625 66.7414 264.266 65.9679 266.188 64.8428C266.422 64.0927 266.563 63.0379 266.61 61.6783C266.61 61.1626 266.633 60.7641 266.68 60.4829C264.149 60.0609 261.969 59.85 260.14 59.85Z" fill="#C3C9CB"/>
<defs>
<clipPath id="clip0_359_3204">
<rect width="95.5" height="72.2" fill="white" transform="translate(0 12.4)"/>
</clipPath>
</defs>
</svg>
