<svg width="380" height="87" viewBox="0 0 380 87" fill="none" xmlns="http://www.w3.org/2000/svg">
<g clip-path="url(#clip0_359_3201)">
<path d="M71.6001 7.45001C72.5001 6.55001 71.9001 4.95001 70.6001 4.95001H61.9001C59.1001 4.95001 56.4001 6.05001 54.5001 8.05001L38.6001 23.85L46.9001 32.15L71.6001 7.45001Z" fill="#C3C9CB"/>
<path d="M30.2 32.25L35.2999 37.35C37.0999 39.15 39.9 39.15 41.7 37.35L45.9 33.15L46.7999 32.25L38.5 23.95L33.2999 18.75C31.3999 16.85 28.7 15.75 26 15.75H13.7L30.2 32.25Z" fill="#DDE1E2"/>
<path d="M5.50002 79.55C4.60002 80.45 5.20002 82.05 6.50002 82.05H15.3C18 82.05 20.7 80.95 22.6 79.05L38.5 63.15L30.2 54.85L5.50002 79.55Z" fill="#C3C9CB"/>
<path d="M41.7 49.65C39.9 47.85 37.0999 47.85 35.2999 49.65L31.1 53.85L30.2 54.75L38.5 63.05L43.7 68.25C45.7 70.25 48.4 71.35 51.2 71.35H63.4L46.9 54.85L41.7 49.65Z" fill="#DDE1E2"/>
<path d="M18.9 43.55L13.7 48.75L27.2 35.25L2.5 10.45C1.6 9.55003 0 10.15 0 11.45V20.15C0 22.95 1.1 25.55 3.1 27.55L18.9 43.55Z" fill="#C3C9CB"/>
<path d="M10.7 56.05V68.35L27.2999 51.75L32.4 46.55C34.2 44.75 34.2 41.95 32.4 40.15L27.2999 35.05L13.7 48.75C11.8 50.65 10.7 53.35 10.7 56.05Z" fill="#DDE1E2"/>
<path d="M50 51.75L74.7 76.55C75.6 77.45 77.1 76.85 77.1 75.55V66.75C77.1 63.95 76 61.35 74.1 59.45L58.3 43.55L50 51.75Z" fill="#C3C9CB"/>
<path d="M66.5001 31.05V18.65L50.0001 35.15L45.0001 40.25C43.3001 42.05 43.3001 44.85 45.0001 46.65L50.1001 51.75L63.6001 38.25C65.4001 36.35 66.5001 33.75 66.5001 31.05Z" fill="#DDE1E2"/>
</g>
<path d="M92.7308 64L113.04 18.9039H128.618L148.927 64H137.953L133.664 54.4762H107.994L103.705 64H92.7308ZM111.652 46.2769H130.006L121.239 26.7879H120.419L111.652 46.2769ZM158.781 78.1911V70.9379H177.829C180.352 70.9379 181.613 69.6554 181.613 67.0905V64H167.737C162.103 64 157.709 62.6124 154.556 59.8373C151.402 57.0621 149.825 53.0466 149.825 47.7906C149.825 42.4927 151.402 38.4561 154.556 35.6809C157.709 32.9058 162.103 31.5182 167.737 31.5182H190.759V68.2258C190.759 71.2112 189.897 73.6079 188.173 75.4159C186.449 77.266 183.758 78.1911 180.099 78.1911H158.781ZM167.737 56.7468H181.613V38.7714H167.737C165.004 38.7714 162.902 39.5283 161.43 41.042C160.001 42.5137 159.286 44.7632 159.286 47.7906C159.286 50.776 160.001 53.0256 161.43 54.5393C162.902 56.011 165.004 56.7468 167.737 56.7468ZM214.324 64.3154C208.69 64.3154 204.296 62.9278 201.142 60.1526C197.989 57.3355 196.412 53.2148 196.412 47.7906C196.412 42.3245 197.989 38.2038 201.142 35.4287C204.296 32.6115 208.69 31.2029 214.324 31.2029H225.992C231.627 31.2029 236.021 32.6115 239.174 35.4287C242.328 38.2038 243.905 42.3245 243.905 47.7906C243.905 53.2148 242.328 57.3355 239.174 60.1526C236.021 62.9278 231.627 64.3154 225.992 64.3154H214.324ZM214.324 57.0621H225.992C228.725 57.0621 230.807 56.3053 232.236 54.7916C233.708 53.2779 234.444 50.9442 234.444 47.7906C234.444 44.595 233.708 42.2404 232.236 40.7267C230.807 39.2129 228.725 38.4561 225.992 38.4561H214.324C211.591 38.4561 209.489 39.2129 208.017 40.7267C206.587 42.2404 205.873 44.595 205.873 47.7906C205.873 50.9442 206.587 53.2779 208.017 54.7916C209.489 56.3053 211.591 57.0621 214.324 57.0621ZM249.557 64V31.5182H277.876C281.576 31.5182 284.267 32.4433 285.949 34.2934C287.673 36.1014 288.535 38.4981 288.535 41.4835V64H279.39V42.5557C279.39 40.0329 278.128 38.7714 275.605 38.7714H258.702V64H249.557Z" fill="#C3C9CB"/>
<defs>
<clipPath id="clip0_359_3201">
<rect width="77.1" height="77.1" fill="white" transform="translate(0 4.95001)"/>
</clipPath>
</defs>
</svg>
